<svg width="24" height="24" viewBox="0 0 24 24" fill="none" xmlns="http://www.w3.org/2000/svg">
<path d="M4.16509 18.6933C3.82206 19.0641 3.22305 19.1046 2.82717 18.7825C2.43129 18.4604 2.3888 17.8992 2.73183 17.5274L8.91258 10.8409C9.07736 10.6616 9.31261 10.5522 9.56444 10.536C9.81627 10.5198 10.065 10.5978 10.2546 10.7548L13.2186 13.191L18.2749 7.77976H14.8591C14.3358 7.77976 13.9109 7.38167 13.9109 6.89039C13.9109 6.3991 14.3358 6 14.8591 6L20.5507 6.00101C21.0751 6 21.5 6.3991 21.5 6.89039V12.2287C21.5 12.7199 21.0751 13.118 20.5507 13.118C20.0274 13.118 19.6025 12.7199 19.6025 12.2287V9.06014L14.0197 15.0335C13.6746 15.4022 13.0745 15.4397 12.6807 15.1156L9.72093 12.6825L4.16509 18.6933Z" fill="#0F45E0"/>
</svg>
