<svg preserveAspectRatio="none" width="100%" height="100%" overflow="visible" style="display: block;" viewBox="0 0 1092.7 1093.55" fill="none" xmlns="http://www.w3.org/2000/svg">
<g id="Group 33">
<circle id="Ellipse 12" cx="546.602" cy="546.777" r="137.322" stroke="var(--stroke-0, #0F45E0)"/>
<path id="Vector 86" d="M276.556 9.27051L171.392 113.264L380.465 320.095C386.081 325.651 393.663 328.768 401.563 328.768H693.542C701.503 328.768 709.137 325.604 714.764 319.973L921.311 113.264L817.399 9.27051L619.591 208.486V0.5H473.112V208.486L276.556 9.27051Z" stroke="var(--stroke-0, #0F45E0)"/>
<path id="Vector 87" d="M816.147 1084.28L921.311 980.291L712.238 773.46C706.622 767.904 699.04 764.787 691.14 764.787L399.161 764.787C391.2 764.787 383.566 767.951 377.939 773.582L171.392 980.291L275.304 1084.28L473.112 885.068L473.112 1093.05L619.591 1093.05L619.591 885.068L816.147 1084.28Z" stroke="var(--stroke-0, #0F45E0)"/>
<path id="Vector 88" d="M1083.44 276.771L979.527 171.525L772.848 380.771C767.301 386.386 764.191 393.96 764.191 401.853L764.191 694.106C764.191 702.059 767.349 709.686 772.97 715.311L979.527 922.03L1083.44 818.037L884.379 620.074L1092.2 620.074L1092.2 473.481L884.379 473.481L1083.44 276.771Z" stroke="var(--stroke-0, #0F45E0)"/>
<path id="Vector 89" d="M9.26365 816.784L113.176 922.03L319.855 712.784C325.402 707.169 328.512 699.594 328.512 691.702L328.512 399.448C328.512 391.496 325.354 383.869 319.733 378.243L113.176 171.525L9.26372 275.518L208.324 473.481L0.500019 473.481L0.5 620.074L208.324 620.074L9.26365 816.784Z" stroke="var(--stroke-0, #0F45E0)"/>
</g>
</svg>
