<svg preserveAspectRatio="none" width="100%" height="100%" overflow="visible" style="display: block;" viewBox="0 0 180.5 1459.5" fill="none" xmlns="http://www.w3.org/2000/svg">
<g id="Group 34">
<path id="Vector 90" d="M107.5 81.5001L109.469 81.0078C112.107 80.3484 114.515 78.9847 116.438 77.0623L139 54.5001L126 41.5001L99.5 68.0001V14.0001L126 40.0001L139 27.5001L115.973 4.92428C114.346 3.32916 112.377 2.12566 110.215 1.40513L107.5 0.500136" stroke="var(--stroke-0, #0979FF)" stroke-linecap="round" stroke-linejoin="round"/>
<path id="Vector 98" d="M107.5 243.5L109.469 243.008C112.107 242.348 114.515 240.985 116.438 239.062L139 216.5L126 203.5L99.5 230V176L126 202L139 189.5L115.973 166.924C114.346 165.329 112.377 164.126 110.215 163.405L107.5 162.5" stroke="var(--stroke-0, #0979FF)" stroke-linecap="round" stroke-linejoin="round"/>
<path id="Vector 106" d="M107.5 405.5L109.469 405.008C112.107 404.348 114.515 402.985 116.438 401.062L139 378.5L126 365.5L99.5 392V338L126 364L139 351.5L115.973 328.924C114.346 327.329 112.377 326.126 110.215 325.405L107.5 324.5" stroke="var(--stroke-0, #0979FF)" stroke-linecap="round" stroke-linejoin="round"/>
<path id="Vector 114" d="M107.5 567.5L109.469 567.008C112.107 566.348 114.515 564.985 116.438 563.062L139 540.5L126 527.5L99.5 554V500L126 526L139 513.5L115.973 490.924C114.346 489.329 112.377 488.126 110.215 487.405L107.5 486.5" stroke="var(--stroke-0, #0979FF)" stroke-linecap="round" stroke-linejoin="round"/>
<path id="Vector 122" d="M107.5 729.5L109.469 729.008C112.107 728.348 114.515 726.985 116.438 725.062L139 702.5L126 689.5L99.5 716V662L126 688L139 675.5L115.973 652.924C114.346 651.329 112.377 650.126 110.215 649.405L107.5 648.5" stroke="var(--stroke-0, #0979FF)" stroke-linecap="round" stroke-linejoin="round"/>
<path id="Vector 130" d="M107.5 891.5L109.469 891.008C112.107 890.348 114.515 888.985 116.438 887.062L139 864.5L126 851.5L99.5 878V824L126 850L139 837.5L115.973 814.924C114.346 813.329 112.377 812.126 110.215 811.405L107.5 810.5" stroke="var(--stroke-0, #0979FF)" stroke-linecap="round" stroke-linejoin="round"/>
<path id="Vector 138" d="M107.5 1053.5L109.469 1053.01C112.107 1052.35 114.515 1050.98 116.438 1049.06L139 1026.5L126 1013.5L99.5 1040V986L126 1012L139 999.5L115.973 976.924C114.346 975.329 112.377 974.126 110.215 973.405L107.5 972.5" stroke="var(--stroke-0, #0979FF)" stroke-linecap="round" stroke-linejoin="round"/>
<path id="Vector 146" d="M107.5 1215.5L109.469 1215.01C112.107 1214.35 114.515 1212.98 116.438 1211.06L139 1188.5L126 1175.5L99.5 1202V1148L126 1174L139 1161.5L115.973 1138.92C114.346 1137.33 112.377 1136.13 110.215 1135.41L107.5 1134.5" stroke="var(--stroke-0, #0979FF)" stroke-linecap="round" stroke-linejoin="round"/>
<path id="Vector 154" d="M107.5 1377.5L109.469 1377.01C112.107 1376.35 114.515 1374.98 116.438 1373.06L139 1350.5L126 1337.5L99.5 1364V1310L126 1336L139 1323.5L115.973 1300.92C114.346 1299.33 112.377 1298.13 110.215 1297.41L107.5 1296.5" stroke="var(--stroke-0, #0979FF)" stroke-linecap="round" stroke-linejoin="round"/>
<path id="Vector 94" d="M8.5 81.5001L10.4693 81.0078C13.1068 80.3484 15.5155 78.9847 17.4379 77.0623L40 54.5001L27 41.5001L0.5 68.0001V14.0001L27 40.0001L40 27.5001L16.9726 4.92428C15.3456 3.32916 13.3766 2.12566 11.215 1.40513L8.5 0.500136" stroke="var(--stroke-0, #0979FF)" stroke-linecap="round" stroke-linejoin="round"/>
<path id="Vector 99" d="M8.5 243.5L10.4693 243.008C13.1068 242.348 15.5155 240.985 17.4379 239.062L40 216.5L27 203.5L0.5 230V176L27 202L40 189.5L16.9726 166.924C15.3456 165.329 13.3766 164.126 11.215 163.405L8.5 162.5" stroke="var(--stroke-0, #0979FF)" stroke-linecap="round" stroke-linejoin="round"/>
<path id="Vector 107" d="M8.5 405.5L10.4693 405.008C13.1068 404.348 15.5155 402.985 17.4379 401.062L40 378.5L27 365.5L0.5 392V338L27 364L40 351.5L16.9726 328.924C15.3456 327.329 13.3766 326.126 11.215 325.405L8.5 324.5" stroke="var(--stroke-0, #0979FF)" stroke-linecap="round" stroke-linejoin="round"/>
<path id="Vector 115" d="M8.5 567.5L10.4693 567.008C13.1068 566.348 15.5155 564.985 17.4379 563.062L40 540.5L27 527.5L0.5 554V500L27 526L40 513.5L16.9726 490.924C15.3456 489.329 13.3766 488.126 11.215 487.405L8.5 486.5" stroke="var(--stroke-0, #0979FF)" stroke-linecap="round" stroke-linejoin="round"/>
<path id="Vector 123" d="M8.5 729.5L10.4693 729.008C13.1068 728.348 15.5155 726.985 17.4379 725.062L40 702.5L27 689.5L0.5 716V662L27 688L40 675.5L16.9726 652.924C15.3456 651.329 13.3766 650.126 11.215 649.405L8.5 648.5" stroke="var(--stroke-0, #0979FF)" stroke-linecap="round" stroke-linejoin="round"/>
<path id="Vector 131" d="M8.5 891.5L10.4693 891.008C13.1068 890.348 15.5155 888.985 17.4379 887.062L40 864.5L27 851.5L0.5 878V824L27 850L40 837.5L16.9726 814.924C15.3456 813.329 13.3766 812.126 11.215 811.405L8.5 810.5" stroke="var(--stroke-0, #0979FF)" stroke-linecap="round" stroke-linejoin="round"/>
<path id="Vector 139" d="M8.5 1053.5L10.4693 1053.01C13.1068 1052.35 15.5155 1050.98 17.4379 1049.06L40 1026.5L27 1013.5L0.5 1040V986L27 1012L40 999.5L16.9726 976.924C15.3456 975.329 13.3766 974.126 11.215 973.405L8.5 972.5" stroke="var(--stroke-0, #0979FF)" stroke-linecap="round" stroke-linejoin="round"/>
<path id="Vector 147" d="M8.5 1215.5L10.4693 1215.01C13.1068 1214.35 15.5155 1212.98 17.4379 1211.06L40 1188.5L27 1175.5L0.5 1202V1148L27 1174L40 1161.5L16.9726 1138.92C15.3456 1137.33 13.3766 1136.13 11.215 1135.41L8.5 1134.5" stroke="var(--stroke-0, #0979FF)" stroke-linecap="round" stroke-linejoin="round"/>
<path id="Vector 155" d="M8.5 1377.5L10.4693 1377.01C13.1068 1376.35 15.5155 1374.98 17.4379 1373.06L40 1350.5L27 1337.5L0.5 1364V1310L27 1336L40 1323.5L16.9726 1300.92C15.3456 1299.33 13.3766 1298.13 11.215 1297.41L8.5 1296.5" stroke="var(--stroke-0, #0979FF)" stroke-linecap="round" stroke-linejoin="round"/>
<path id="Vector 91" d="M172 81.5001L170.031 81.0078C167.393 80.3484 164.985 78.9847 163.062 77.0623L140.5 54.5001L153.5 41.5001L180 68.0001V14.0001L153.5 40.0001L140.5 27.5001L163.527 4.92428C165.154 3.32916 167.123 2.12566 169.285 1.40513L172 0.500136" stroke="var(--stroke-0, #0979FF)" stroke-linecap="round" stroke-linejoin="round"/>
<path id="Vector 100" d="M172 243.5L170.031 243.008C167.393 242.348 164.985 240.985 163.062 239.062L140.5 216.5L153.5 203.5L180 230V176L153.5 202L140.5 189.5L163.527 166.924C165.154 165.329 167.123 164.126 169.285 163.405L172 162.5" stroke="var(--stroke-0, #0979FF)" stroke-linecap="round" stroke-linejoin="round"/>
<path id="Vector 108" d="M172 405.5L170.031 405.008C167.393 404.348 164.985 402.985 163.062 401.062L140.5 378.5L153.5 365.5L180 392V338L153.5 364L140.5 351.5L163.527 328.924C165.154 327.329 167.123 326.126 169.285 325.405L172 324.5" stroke="var(--stroke-0, #0979FF)" stroke-linecap="round" stroke-linejoin="round"/>
<path id="Vector 116" d="M172 567.5L170.031 567.008C167.393 566.348 164.985 564.985 163.062 563.062L140.5 540.5L153.5 527.5L180 554V500L153.5 526L140.5 513.5L163.527 490.924C165.154 489.329 167.123 488.126 169.285 487.405L172 486.5" stroke="var(--stroke-0, #0979FF)" stroke-linecap="round" stroke-linejoin="round"/>
<path id="Vector 124" d="M172 729.5L170.031 729.008C167.393 728.348 164.985 726.985 163.062 725.062L140.5 702.5L153.5 689.5L180 716V662L153.5 688L140.5 675.5L163.527 652.924C165.154 651.329 167.123 650.126 169.285 649.405L172 648.5" stroke="var(--stroke-0, #0979FF)" stroke-linecap="round" stroke-linejoin="round"/>
<path id="Vector 132" d="M172 891.5L170.031 891.008C167.393 890.348 164.985 888.985 163.062 887.062L140.5 864.5L153.5 851.5L180 878V824L153.5 850L140.5 837.5L163.527 814.924C165.154 813.329 167.123 812.126 169.285 811.405L172 810.5" stroke="var(--stroke-0, #0979FF)" stroke-linecap="round" stroke-linejoin="round"/>
<path id="Vector 140" d="M172 1053.5L170.031 1053.01C167.393 1052.35 164.985 1050.98 163.062 1049.06L140.5 1026.5L153.5 1013.5L180 1040V986L153.5 1012L140.5 999.5L163.527 976.924C165.154 975.329 167.123 974.126 169.285 973.405L172 972.5" stroke="var(--stroke-0, #0979FF)" stroke-linecap="round" stroke-linejoin="round"/>
<path id="Vector 148" d="M172 1215.5L170.031 1215.01C167.393 1214.35 164.985 1212.98 163.062 1211.06L140.5 1188.5L153.5 1175.5L180 1202V1148L153.5 1174L140.5 1161.5L163.527 1138.92C165.154 1137.33 167.123 1136.13 169.285 1135.41L172 1134.5" stroke="var(--stroke-0, #0979FF)" stroke-linecap="round" stroke-linejoin="round"/>
<path id="Vector 156" d="M172 1377.5L170.031 1377.01C167.393 1376.35 164.985 1374.98 163.062 1373.06L140.5 1350.5L153.5 1337.5L180 1364V1310L153.5 1336L140.5 1323.5L163.527 1300.92C165.154 1299.33 167.123 1298.13 169.285 1297.41L172 1296.5" stroke="var(--stroke-0, #0979FF)" stroke-linecap="round" stroke-linejoin="round"/>
<path id="Vector 95" d="M73 81.5001L71.0307 81.0078C68.3932 80.3484 65.9845 78.9847 64.0621 77.0623L41.5 54.5001L54.5 41.5001L81 68.0001V14.0001L54.5 40.0001L41.5 27.5001L64.5274 4.92428C66.1544 3.32916 68.1234 2.12566 70.285 1.40513L73 0.500136" stroke="var(--stroke-0, #0979FF)" stroke-linecap="round" stroke-linejoin="round"/>
<path id="Vector 101" d="M73 243.5L71.0307 243.008C68.3932 242.348 65.9845 240.985 64.0621 239.062L41.5 216.5L54.5 203.5L81 230V176L54.5 202L41.5 189.5L64.5274 166.924C66.1544 165.329 68.1234 164.126 70.285 163.405L73 162.5" stroke="var(--stroke-0, #0979FF)" stroke-linecap="round" stroke-linejoin="round"/>
<path id="Vector 109" d="M73 405.5L71.0307 405.008C68.3932 404.348 65.9845 402.985 64.0621 401.062L41.5 378.5L54.5 365.5L81 392V338L54.5 364L41.5 351.5L64.5274 328.924C66.1544 327.329 68.1234 326.126 70.285 325.405L73 324.5" stroke="var(--stroke-0, #0979FF)" stroke-linecap="round" stroke-linejoin="round"/>
<path id="Vector 117" d="M73 567.5L71.0307 567.008C68.3932 566.348 65.9845 564.985 64.0621 563.062L41.5 540.5L54.5 527.5L81 554V500L54.5 526L41.5 513.5L64.5274 490.924C66.1544 489.329 68.1234 488.126 70.285 487.405L73 486.5" stroke="var(--stroke-0, #0979FF)" stroke-linecap="round" stroke-linejoin="round"/>
<path id="Vector 125" d="M73 729.5L71.0307 729.008C68.3932 728.348 65.9845 726.985 64.0621 725.062L41.5 702.5L54.5 689.5L81 716V662L54.5 688L41.5 675.5L64.5274 652.924C66.1544 651.329 68.1234 650.126 70.285 649.405L73 648.5" stroke="var(--stroke-0, #0979FF)" stroke-linecap="round" stroke-linejoin="round"/>
<path id="Vector 133" d="M73 891.5L71.0307 891.008C68.3932 890.348 65.9845 888.985 64.0621 887.062L41.5 864.5L54.5 851.5L81 878V824L54.5 850L41.5 837.5L64.5274 814.924C66.1544 813.329 68.1234 812.126 70.285 811.405L73 810.5" stroke="var(--stroke-0, #0979FF)" stroke-linecap="round" stroke-linejoin="round"/>
<path id="Vector 141" d="M73 1053.5L71.0307 1053.01C68.3932 1052.35 65.9845 1050.98 64.0621 1049.06L41.5 1026.5L54.5 1013.5L81 1040V986L54.5 1012L41.5 999.5L64.5274 976.924C66.1544 975.329 68.1234 974.126 70.285 973.405L73 972.5" stroke="var(--stroke-0, #0979FF)" stroke-linecap="round" stroke-linejoin="round"/>
<path id="Vector 149" d="M73 1215.5L71.0307 1215.01C68.3932 1214.35 65.9845 1212.98 64.0621 1211.06L41.5 1188.5L54.5 1175.5L81 1202V1148L54.5 1174L41.5 1161.5L64.5274 1138.92C66.1544 1137.33 68.1234 1136.13 70.285 1135.41L73 1134.5" stroke="var(--stroke-0, #0979FF)" stroke-linecap="round" stroke-linejoin="round"/>
<path id="Vector 157" d="M73 1377.5L71.0307 1377.01C68.3932 1376.35 65.9845 1374.98 64.0621 1373.06L41.5 1350.5L54.5 1337.5L81 1364V1310L54.5 1336L41.5 1323.5L64.5274 1300.92C66.1544 1299.33 68.1234 1298.13 70.285 1297.41L73 1296.5" stroke="var(--stroke-0, #0979FF)" stroke-linecap="round" stroke-linejoin="round"/>
<path id="Vector 92" d="M107.5 163L109.469 162.508C112.107 161.848 114.515 160.485 116.438 158.562L139 136L126 123L99.5 149.5V95.5001L126 121.5L139 109L115.973 86.4243C114.346 84.8292 112.377 83.6257 110.215 82.9051L107.5 82.0001" stroke="var(--stroke-0, #0979FF)" stroke-linecap="round" stroke-linejoin="round"/>
<path id="Vector 102" d="M107.5 325L109.469 324.508C112.107 323.848 114.515 322.485 116.438 320.562L139 298L126 285L99.5 311.5V257.5L126 283.5L139 271L115.973 248.424C114.346 246.829 112.377 245.626 110.215 244.905L107.5 244" stroke="var(--stroke-0, #0979FF)" stroke-linecap="round" stroke-linejoin="round"/>
<path id="Vector 110" d="M107.5 487L109.469 486.508C112.107 485.848 114.515 484.485 116.438 482.562L139 460L126 447L99.5 473.5V419.5L126 445.5L139 433L115.973 410.424C114.346 408.829 112.377 407.626 110.215 406.905L107.5 406" stroke="var(--stroke-0, #0979FF)" stroke-linecap="round" stroke-linejoin="round"/>
<path id="Vector 118" d="M107.5 649L109.469 648.508C112.107 647.848 114.515 646.485 116.438 644.562L139 622L126 609L99.5 635.5V581.5L126 607.5L139 595L115.973 572.424C114.346 570.829 112.377 569.626 110.215 568.905L107.5 568" stroke="var(--stroke-0, #0979FF)" stroke-linecap="round" stroke-linejoin="round"/>
<path id="Vector 126" d="M107.5 811L109.469 810.508C112.107 809.848 114.515 808.485 116.438 806.562L139 784L126 771L99.5 797.5V743.5L126 769.5L139 757L115.973 734.424C114.346 732.829 112.377 731.626 110.215 730.905L107.5 730" stroke="var(--stroke-0, #0979FF)" stroke-linecap="round" stroke-linejoin="round"/>
<path id="Vector 134" d="M107.5 973L109.469 972.508C112.107 971.848 114.515 970.485 116.438 968.562L139 946L126 933L99.5 959.5V905.5L126 931.5L139 919L115.973 896.424C114.346 894.829 112.377 893.626 110.215 892.905L107.5 892" stroke="var(--stroke-0, #0979FF)" stroke-linecap="round" stroke-linejoin="round"/>
<path id="Vector 142" d="M107.5 1135L109.469 1134.51C112.107 1133.85 114.515 1132.48 116.438 1130.56L139 1108L126 1095L99.5 1121.5V1067.5L126 1093.5L139 1081L115.973 1058.42C114.346 1056.83 112.377 1055.63 110.215 1054.91L107.5 1054" stroke="var(--stroke-0, #0979FF)" stroke-linecap="round" stroke-linejoin="round"/>
<path id="Vector 150" d="M107.5 1297L109.469 1296.51C112.107 1295.85 114.515 1294.48 116.438 1292.56L139 1270L126 1257L99.5 1283.5V1229.5L126 1255.5L139 1243L115.973 1220.42C114.346 1218.83 112.377 1217.63 110.215 1216.91L107.5 1216" stroke="var(--stroke-0, #0979FF)" stroke-linecap="round" stroke-linejoin="round"/>
<path id="Vector 158" d="M107.5 1459L109.469 1458.51C112.107 1457.85 114.515 1456.48 116.438 1454.56L139 1432L126 1419L99.5 1445.5V1391.5L126 1417.5L139 1405L115.973 1382.42C114.346 1380.83 112.377 1379.63 110.215 1378.91L107.5 1378" stroke="var(--stroke-0, #0979FF)" stroke-linecap="round" stroke-linejoin="round"/>
<path id="Vector 96" d="M8.5 163L10.4693 162.508C13.1068 161.848 15.5155 160.485 17.4379 158.562L40 136L27 123L0.5 149.5V95.5001L27 121.5L40 109L16.9726 86.4243C15.3456 84.8292 13.3766 83.6257 11.215 82.9051L8.5 82.0001" stroke="var(--stroke-0, #0979FF)" stroke-linecap="round" stroke-linejoin="round"/>
<path id="Vector 103" d="M8.5 325L10.4693 324.508C13.1068 323.848 15.5155 322.485 17.4379 320.562L40 298L27 285L0.5 311.5V257.5L27 283.5L40 271L16.9726 248.424C15.3456 246.829 13.3766 245.626 11.215 244.905L8.5 244" stroke="var(--stroke-0, #0979FF)" stroke-linecap="round" stroke-linejoin="round"/>
<path id="Vector 111" d="M8.5 487L10.4693 486.508C13.1068 485.848 15.5155 484.485 17.4379 482.562L40 460L27 447L0.5 473.5V419.5L27 445.5L40 433L16.9726 410.424C15.3456 408.829 13.3766 407.626 11.215 406.905L8.5 406" stroke="var(--stroke-0, #0979FF)" stroke-linecap="round" stroke-linejoin="round"/>
<path id="Vector 119" d="M8.5 649L10.4693 648.508C13.1068 647.848 15.5155 646.485 17.4379 644.562L40 622L27 609L0.5 635.5V581.5L27 607.5L40 595L16.9726 572.424C15.3456 570.829 13.3766 569.626 11.215 568.905L8.5 568" stroke="var(--stroke-0, #0979FF)" stroke-linecap="round" stroke-linejoin="round"/>
<path id="Vector 127" d="M8.5 811L10.4693 810.508C13.1068 809.848 15.5155 808.485 17.4379 806.562L40 784L27 771L0.5 797.5V743.5L27 769.5L40 757L16.9726 734.424C15.3456 732.829 13.3766 731.626 11.215 730.905L8.5 730" stroke="var(--stroke-0, #0979FF)" stroke-linecap="round" stroke-linejoin="round"/>
<path id="Vector 135" d="M8.5 973L10.4693 972.508C13.1068 971.848 15.5155 970.485 17.4379 968.562L40 946L27 933L0.5 959.5V905.5L27 931.5L40 919L16.9726 896.424C15.3456 894.829 13.3766 893.626 11.215 892.905L8.5 892" stroke="var(--stroke-0, #0979FF)" stroke-linecap="round" stroke-linejoin="round"/>
<path id="Vector 143" d="M8.5 1135L10.4693 1134.51C13.1068 1133.85 15.5155 1132.48 17.4379 1130.56L40 1108L27 1095L0.5 1121.5V1067.5L27 1093.5L40 1081L16.9726 1058.42C15.3456 1056.83 13.3766 1055.63 11.215 1054.91L8.5 1054" stroke="var(--stroke-0, #0979FF)" stroke-linecap="round" stroke-linejoin="round"/>
<path id="Vector 151" d="M8.5 1297L10.4693 1296.51C13.1068 1295.85 15.5155 1294.48 17.4379 1292.56L40 1270L27 1257L0.5 1283.5V1229.5L27 1255.5L40 1243L16.9726 1220.42C15.3456 1218.83 13.3766 1217.63 11.215 1216.91L8.5 1216" stroke="var(--stroke-0, #0979FF)" stroke-linecap="round" stroke-linejoin="round"/>
<path id="Vector 159" d="M8.5 1459L10.4693 1458.51C13.1068 1457.85 15.5155 1456.48 17.4379 1454.56L40 1432L27 1419L0.5 1445.5V1391.5L27 1417.5L40 1405L16.9726 1382.42C15.3456 1380.83 13.3766 1379.63 11.215 1378.91L8.5 1378" stroke="var(--stroke-0, #0979FF)" stroke-linecap="round" stroke-linejoin="round"/>
<path id="Vector 93" d="M172 163L170.031 162.508C167.393 161.848 164.985 160.485 163.062 158.562L140.5 136L153.5 123L180 149.5V95.5001L153.5 121.5L140.5 109L163.527 86.4243C165.154 84.8292 167.123 83.6257 169.285 82.9051L172 82.0001" stroke="var(--stroke-0, #0979FF)" stroke-linecap="round" stroke-linejoin="round"/>
<path id="Vector 104" d="M172 325L170.031 324.508C167.393 323.848 164.985 322.485 163.062 320.562L140.5 298L153.5 285L180 311.5V257.5L153.5 283.5L140.5 271L163.527 248.424C165.154 246.829 167.123 245.626 169.285 244.905L172 244" stroke="var(--stroke-0, #0979FF)" stroke-linecap="round" stroke-linejoin="round"/>
<path id="Vector 112" d="M172 487L170.031 486.508C167.393 485.848 164.985 484.485 163.062 482.562L140.5 460L153.5 447L180 473.5V419.5L153.5 445.5L140.5 433L163.527 410.424C165.154 408.829 167.123 407.626 169.285 406.905L172 406" stroke="var(--stroke-0, #0979FF)" stroke-linecap="round" stroke-linejoin="round"/>
<path id="Vector 120" d="M172 649L170.031 648.508C167.393 647.848 164.985 646.485 163.062 644.562L140.5 622L153.5 609L180 635.5V581.5L153.5 607.5L140.5 595L163.527 572.424C165.154 570.829 167.123 569.626 169.285 568.905L172 568" stroke="var(--stroke-0, #0979FF)" stroke-linecap="round" stroke-linejoin="round"/>
<path id="Vector 128" d="M172 811L170.031 810.508C167.393 809.848 164.985 808.485 163.062 806.562L140.5 784L153.5 771L180 797.5V743.5L153.5 769.5L140.5 757L163.527 734.424C165.154 732.829 167.123 731.626 169.285 730.905L172 730" stroke="var(--stroke-0, #0979FF)" stroke-linecap="round" stroke-linejoin="round"/>
<path id="Vector 136" d="M172 973L170.031 972.508C167.393 971.848 164.985 970.485 163.062 968.562L140.5 946L153.5 933L180 959.5V905.5L153.5 931.5L140.5 919L163.527 896.424C165.154 894.829 167.123 893.626 169.285 892.905L172 892" stroke="var(--stroke-0, #0979FF)" stroke-linecap="round" stroke-linejoin="round"/>
<path id="Vector 144" d="M172 1135L170.031 1134.51C167.393 1133.85 164.985 1132.48 163.062 1130.56L140.5 1108L153.5 1095L180 1121.5V1067.5L153.5 1093.5L140.5 1081L163.527 1058.42C165.154 1056.83 167.123 1055.63 169.285 1054.91L172 1054" stroke="var(--stroke-0, #0979FF)" stroke-linecap="round" stroke-linejoin="round"/>
<path id="Vector 152" d="M172 1297L170.031 1296.51C167.393 1295.85 164.985 1294.48 163.062 1292.56L140.5 1270L153.5 1257L180 1283.5V1229.5L153.5 1255.5L140.5 1243L163.527 1220.42C165.154 1218.83 167.123 1217.63 169.285 1216.91L172 1216" stroke="var(--stroke-0, #0979FF)" stroke-linecap="round" stroke-linejoin="round"/>
<path id="Vector 160" d="M172 1459L170.031 1458.51C167.393 1457.85 164.985 1456.48 163.062 1454.56L140.5 1432L153.5 1419L180 1445.5V1391.5L153.5 1417.5L140.5 1405L163.527 1382.42C165.154 1380.83 167.123 1379.63 169.285 1378.91L172 1378" stroke="var(--stroke-0, #0979FF)" stroke-linecap="round" stroke-linejoin="round"/>
<path id="Vector 97" d="M73 163L71.0307 162.508C68.3932 161.848 65.9845 160.485 64.0621 158.562L41.5 136L54.5 123L81 149.5V95.5001L54.5 121.5L41.5 109L64.5274 86.4243C66.1544 84.8292 68.1234 83.6257 70.285 82.9051L73 82.0001" stroke="var(--stroke-0, #0979FF)" stroke-linecap="round" stroke-linejoin="round"/>
<path id="Vector 105" d="M73 325L71.0307 324.508C68.3932 323.848 65.9845 322.485 64.0621 320.562L41.5 298L54.5 285L81 311.5V257.5L54.5 283.5L41.5 271L64.5274 248.424C66.1544 246.829 68.1234 245.626 70.285 244.905L73 244" stroke="var(--stroke-0, #0979FF)" stroke-linecap="round" stroke-linejoin="round"/>
<path id="Vector 113" d="M73 487L71.0307 486.508C68.3932 485.848 65.9845 484.485 64.0621 482.562L41.5 460L54.5 447L81 473.5V419.5L54.5 445.5L41.5 433L64.5274 410.424C66.1544 408.829 68.1234 407.626 70.285 406.905L73 406" stroke="var(--stroke-0, #0979FF)" stroke-linecap="round" stroke-linejoin="round"/>
<path id="Vector 121" d="M73 649L71.0307 648.508C68.3932 647.848 65.9845 646.485 64.0621 644.562L41.5 622L54.5 609L81 635.5V581.5L54.5 607.5L41.5 595L64.5274 572.424C66.1544 570.829 68.1234 569.626 70.285 568.905L73 568" stroke="var(--stroke-0, #0979FF)" stroke-linecap="round" stroke-linejoin="round"/>
<path id="Vector 129" d="M73 811L71.0307 810.508C68.3932 809.848 65.9845 808.485 64.0621 806.562L41.5 784L54.5 771L81 797.5V743.5L54.5 769.5L41.5 757L64.5274 734.424C66.1544 732.829 68.1234 731.626 70.285 730.905L73 730" stroke="var(--stroke-0, #0979FF)" stroke-linecap="round" stroke-linejoin="round"/>
<path id="Vector 137" d="M73 973L71.0307 972.508C68.3932 971.848 65.9845 970.485 64.0621 968.562L41.5 946L54.5 933L81 959.5V905.5L54.5 931.5L41.5 919L64.5274 896.424C66.1544 894.829 68.1234 893.626 70.285 892.905L73 892" stroke="var(--stroke-0, #0979FF)" stroke-linecap="round" stroke-linejoin="round"/>
<path id="Vector 145" d="M73 1135L71.0307 1134.51C68.3932 1133.85 65.9845 1132.48 64.0621 1130.56L41.5 1108L54.5 1095L81 1121.5V1067.5L54.5 1093.5L41.5 1081L64.5274 1058.42C66.1544 1056.83 68.1234 1055.63 70.285 1054.91L73 1054" stroke="var(--stroke-0, #0979FF)" stroke-linecap="round" stroke-linejoin="round"/>
<path id="Vector 153" d="M73 1297L71.0307 1296.51C68.3932 1295.85 65.9845 1294.48 64.0621 1292.56L41.5 1270L54.5 1257L81 1283.5V1229.5L54.5 1255.5L41.5 1243L64.5274 1220.42C66.1544 1218.83 68.1234 1217.63 70.285 1216.91L73 1216" stroke="var(--stroke-0, #0979FF)" stroke-linecap="round" stroke-linejoin="round"/>
<path id="Vector 161" d="M73 1459L71.0307 1458.51C68.3932 1457.85 65.9845 1456.48 64.0621 1454.56L41.5 1432L54.5 1419L81 1445.5V1391.5L54.5 1417.5L41.5 1405L64.5274 1382.42C66.1544 1380.83 68.1234 1379.63 70.285 1378.91L73 1378" stroke="var(--stroke-0, #0979FF)" stroke-linecap="round" stroke-linejoin="round"/>
</g>
</svg>
