<svg width="60" height="60" viewBox="0 0 60 60" fill="none" xmlns="http://www.w3.org/2000/svg">
<g clip-path="url(#clip0_82_195)">
<path d="M27.6423 10.2054C28.5897 9.64919 29.7653 9.65532 30.7069 10.2213L50.4239 22.0748C52.373 23.2465 52.3604 26.0763 50.401 27.2307L30.6843 38.8469C29.7541 39.395 28.6012 39.4009 27.6654 38.8625L7.47437 27.2461C5.47924 26.0982 5.46664 23.2239 7.45162 22.0586L27.6423 10.2054Z" stroke="#101A29" stroke-width="3"/>
<path d="M11.4326 29.96V39.8792C11.4326 41.6655 12.3856 43.3161 13.9326 44.2093L26.3121 51.3566C27.8591 52.2498 29.7651 52.2498 31.3121 51.3566L43.6917 44.2093C45.2387 43.3161 46.1917 41.6655 46.1917 39.8792V29.96" stroke="#101A29" stroke-width="3" stroke-linecap="round"/>
<path d="M52.2056 24.4717L52.2056 46.4248" stroke="#101A29" stroke-width="3" stroke-linecap="round"/>
<circle cx="52.2048" cy="46.4248" r="3.04904" fill="#101A29"/>
</g>
<defs>
<clipPath id="clip0_82_195">
<rect width="60" height="60" fill="white"/>
</clipPath>
</defs>
</svg>
