<svg width="60" height="60" viewBox="0 0 60 60" fill="none" xmlns="http://www.w3.org/2000/svg">
<path d="M5.3999 53.4H55.1856" stroke="#101A29" stroke-width="3" stroke-linecap="round"/>
<path d="M26.7783 44.6143L33.8069 44.6143" stroke="#101A29" stroke-width="3" stroke-linecap="round"/>
<path d="M26.7783 37.5857L33.8069 37.5857" stroke="#101A29" stroke-width="3" stroke-linecap="round"/>
<path d="M26.7783 30.5571L33.8069 30.5571" stroke="#101A29" stroke-width="3" stroke-linecap="round"/>
<path d="M8.03613 53.1071V35.2643C8.03613 32.5029 10.2747 30.2643 13.0361 30.2643H18.2861" stroke="#101A29" stroke-width="3" stroke-linecap="round"/>
<path d="M32.6357 20.6V10.8025C32.6357 7.79783 35.8247 5.86587 38.4878 7.25706L49.5723 13.0474C51.2226 13.9096 52.2572 15.6173 52.2572 17.4792V53.4" stroke="#101A29" stroke-width="3" stroke-linecap="round"/>
<path d="M18.5786 53.4V25.6C18.5786 22.8386 20.8172 20.6 23.5786 20.6H37.0072C39.7686 20.6 42.0072 22.8386 42.0072 25.6V53.4" stroke="#101A29" stroke-width="3" stroke-linecap="round"/>
</svg>
