<svg width="60" height="60" viewBox="0 0 60 60" fill="none" xmlns="http://www.w3.org/2000/svg">
<path d="M23.9999 19.2H21.331C18.9791 19.2 16.6959 19.9927 14.8499 21.45L14.6427 21.6136C12.9309 22.965 10.8137 23.7 8.63284 23.7C6.84734 23.7 5.3999 25.1475 5.3999 26.933V39.7C5.3999 42.4614 7.63848 44.7 10.3999 44.7H15.0802C16.9658 44.7 18.7909 45.3661 20.2332 46.5807L24.1776 49.9023C27.1858 52.4355 31.5892 52.4066 34.5639 49.8339L39.0914 45.9182C39.9999 45.1325 41.161 44.7 42.3621 44.7H49.5999C52.3613 44.7 54.5999 42.4614 54.5999 39.7V28.7C54.5999 25.9386 52.3613 23.7 49.5999 23.7H46.4357C44.5329 23.7 42.6845 23.0658 41.1826 21.8976C37.8541 19.3089 33.1358 19.5309 30.0652 22.4209L22.9779 29.0913C21.3782 30.597 21.2742 33.1048 22.7438 34.7377C24.2573 36.4194 26.8564 36.5311 28.5086 34.9855L34.7999 29.1" stroke="#101A29" stroke-width="3" stroke-linecap="round"/>
<path d="M38.7002 46.5L39.9094 45.3412C43.1187 42.2656 42.9751 37.0928 39.6002 34.2" stroke="#101A29" stroke-width="3" stroke-linecap="round"/>
<path d="M30 11.4L30 6.59998" stroke="#101A29" stroke-width="3" stroke-linecap="round"/>
<path d="M22.7999 11.9569L20.3999 7.79999" stroke="#101A29" stroke-width="3" stroke-linecap="round"/>
<path d="M36.6 11.9569L39 7.79999" stroke="#101A29" stroke-width="3" stroke-linecap="round"/>
</svg>
