<svg width="700" height="300" viewBox="0 0 700 300" fill="none" xmlns="http://www.w3.org/2000/svg">
<g opacity="0.3">
<path d="M225.007 122.379L192.537 222.312H87.4629L54.9922 122.379L140 60.6172L225.007 122.379Z" stroke="white"/>
<path opacity="0.9" d="M285.007 122.379L252.537 222.312H147.463L114.992 122.379L200 60.6172L285.007 122.379Z" stroke="white"/>
<path opacity="0.8" d="M345.007 122.379L312.537 222.312H207.463L174.992 122.379L260 60.6172L345.007 122.379Z" stroke="white"/>
<path opacity="0.7" d="M405.007 122.379L372.537 222.312H267.463L234.992 122.379L320 60.6172L405.007 122.379Z" stroke="white"/>
<path opacity="0.6" d="M465.007 122.379L432.537 222.312H327.463L294.992 122.379L380 60.6172L465.007 122.379Z" stroke="white"/>
<path opacity="0.5" d="M525.007 122.379L492.537 222.312H387.463L354.992 122.379L440 60.6172L525.007 122.379Z" stroke="white"/>
<path opacity="0.3" d="M585.007 122.379L552.537 222.312H447.463L414.992 122.379L500 60.6172L585.007 122.379Z" stroke="white"/>
<path opacity="0.1" d="M645.007 122.379L612.537 222.312H507.463L474.992 122.379L560 60.6172L645.007 122.379Z" stroke="white"/>
</g>
</svg>
