<svg width="700" height="300" viewBox="0 0 700 300" fill="none" xmlns="http://www.w3.org/2000/svg">
<g opacity="0.3">
<path d="M605.303 79C594.29 107.98 559.177 185.741 542.997 221" stroke="white"/>
<path d="M492.284 79C469.1 128.265 573.426 152.898 542.998 221" stroke="white"/>
<g opacity="0.9">
<path d="M548.891 79C537.878 107.98 502.765 185.741 486.585 221" stroke="white"/>
<path d="M435.871 79C412.687 128.265 517.013 152.898 486.585 221" stroke="white"/>
</g>
<g opacity="0.8">
<path d="M492.478 79C481.465 107.98 446.352 185.741 430.171 221" stroke="white"/>
<path d="M379.459 79C356.275 128.265 460.601 152.898 430.173 221" stroke="white"/>
</g>
<g opacity="0.7">
<path d="M436.065 79C425.053 107.98 389.94 185.741 373.759 221" stroke="white"/>
<path d="M323.046 79C299.862 128.265 404.188 152.898 373.76 221" stroke="white"/>
</g>
<g opacity="0.6">
<path d="M379.652 79C368.64 107.98 333.526 185.741 317.346 221" stroke="white"/>
<path d="M266.632 79C243.448 128.265 347.775 152.898 317.347 221" stroke="white"/>
</g>
<path d="M323.239 79C312.227 107.98 277.113 185.741 260.933 221" stroke="white"/>
<path d="M210.219 79C187.035 128.265 291.362 152.898 260.934 221" stroke="white"/>
<g opacity="0.3">
<path d="M266.826 79C255.814 107.98 220.7 185.741 204.52 221" stroke="white"/>
<path d="M153.806 79C130.622 128.265 234.949 152.898 204.52 221" stroke="white"/>
</g>
<g opacity="0.1">
<path d="M210.413 79C199.401 107.98 164.287 185.741 148.107 221" stroke="white"/>
<path d="M97.3932 79C74.2092 128.265 178.536 152.898 148.107 221" stroke="white"/>
</g>
</g>
</svg>
