<svg width="700" height="300" viewBox="0 0 700 300" fill="none" xmlns="http://www.w3.org/2000/svg">
<g opacity="0.3">
<path d="M122.5 58.5C138.143 58.5 152.382 68.6466 162.734 85.2109C173.083 101.768 179.5 124.674 179.5 150C179.5 175.326 173.083 198.232 162.734 214.789C152.382 231.353 138.143 241.5 122.5 241.5C106.857 241.5 92.6184 231.353 82.2656 214.789C71.9172 198.232 65.5 175.326 65.5 150C65.5 124.674 71.9172 101.768 82.2656 85.2109C92.6184 68.6466 106.857 58.5 122.5 58.5Z" stroke="white"/>
<path opacity="0.9" d="M187.5 58.5C203.143 58.5 217.382 68.6466 227.734 85.2109C238.083 101.768 244.5 124.674 244.5 150C244.5 175.326 238.083 198.232 227.734 214.789C217.382 231.353 203.143 241.5 187.5 241.5C171.857 241.5 157.618 231.353 147.266 214.789C136.917 198.232 130.5 175.326 130.5 150C130.5 124.674 136.917 101.768 147.266 85.2109C157.618 68.6466 171.857 58.5 187.5 58.5Z" stroke="white"/>
<path opacity="0.8" d="M252.5 58.5C268.143 58.5 282.382 68.6466 292.734 85.2109C303.083 101.768 309.5 124.674 309.5 150C309.5 175.326 303.083 198.232 292.734 214.789C282.382 231.353 268.143 241.5 252.5 241.5C236.857 241.5 222.618 231.353 212.266 214.789C201.917 198.232 195.5 175.326 195.5 150C195.5 124.674 201.917 101.768 212.266 85.2109C222.618 68.6466 236.857 58.5 252.5 58.5Z" stroke="white"/>
<path opacity="0.7" d="M317.5 58.5C333.143 58.5 347.382 68.6466 357.734 85.2109C368.083 101.768 374.5 124.674 374.5 150C374.5 175.326 368.083 198.232 357.734 214.789C347.382 231.353 333.143 241.5 317.5 241.5C301.857 241.5 287.618 231.353 277.266 214.789C266.917 198.232 260.5 175.326 260.5 150C260.5 124.674 266.917 101.768 277.266 85.2109C287.618 68.6466 301.857 58.5 317.5 58.5Z" stroke="white"/>
<path opacity="0.6" d="M382.5 58.5C398.143 58.5 412.382 68.6466 422.734 85.2109C433.083 101.768 439.5 124.674 439.5 150C439.5 175.326 433.083 198.232 422.734 214.789C412.382 231.353 398.143 241.5 382.5 241.5C366.857 241.5 352.618 231.353 342.266 214.789C331.917 198.232 325.5 175.326 325.5 150C325.5 124.674 331.917 101.768 342.266 85.2109C352.618 68.6466 366.857 58.5 382.5 58.5Z" stroke="white"/>
<path opacity="0.5" d="M447.5 58.5C463.143 58.5 477.382 68.6466 487.734 85.2109C498.083 101.768 504.5 124.674 504.5 150C504.5 175.326 498.083 198.232 487.734 214.789C477.382 231.353 463.143 241.5 447.5 241.5C431.857 241.5 417.618 231.353 407.266 214.789C396.917 198.232 390.5 175.326 390.5 150C390.5 124.674 396.917 101.768 407.266 85.2109C417.618 68.6466 431.857 58.5 447.5 58.5Z" stroke="white"/>
<path opacity="0.3" d="M512.5 58.5C528.143 58.5 542.382 68.6466 552.734 85.2109C563.083 101.768 569.5 124.674 569.5 150C569.5 175.326 563.083 198.232 552.734 214.789C542.382 231.353 528.143 241.5 512.5 241.5C496.857 241.5 482.618 231.353 472.266 214.789C461.917 198.232 455.5 175.326 455.5 150C455.5 124.674 461.917 101.768 472.266 85.2109C482.618 68.6466 496.857 58.5 512.5 58.5Z" stroke="white"/>
<path opacity="0.1" d="M577.5 58.5C593.143 58.5 607.382 68.6466 617.734 85.2109C628.083 101.768 634.5 124.674 634.5 150C634.5 175.326 628.083 198.232 617.734 214.789C607.382 231.353 593.143 241.5 577.5 241.5C561.857 241.5 547.618 231.353 537.266 214.789C526.917 198.232 520.5 175.326 520.5 150C520.5 124.674 526.917 101.768 537.266 85.2109C547.618 68.6466 561.857 58.5 577.5 58.5Z" stroke="white"/>
</g>
</svg>
