<svg width="2448" height="45" viewBox="0 0 2448 45" fill="none" xmlns="http://www.w3.org/2000/svg">
<g clip-path="url(#clip0_61_124)">
<path opacity="0.5" d="M0 10V27M9 10V18M18 10V18M27 10V18M36 10V18M45 10V18M54 10V18M63 10V18M72 10V18M81 10V18M90 10V18M99 10V18M108 10V18M117 10V18M126 10V18M135 10V18M144 10V18M153 10V18M162 10V18M171 10V18M180 10V18M189 10V26M198 10V18M207 10V18M216 10V18M225 10V18M234 10V18M243 10V18M252 10V18M261 10V18M270 10V18M279 10V18M288 10V18M297 10V18M306 10V18M315 10V18M324 10V18M333 10V18M342 10V18M351 10V18M360 10V18M369 10V18M378 10V26M387 10V18M396 10V18M405 10V18M414 10V18M423 10V18M432 10V18M441 10V18M450 10V18M459 10V18M468 10V18M477 10V18M486 10V18M495 10V18M504 10V18M513 10V18M522 10V18M531 10V18M540 10V18M549 10V18M558 10V18M567 10V26M576 10V18M585 10V18M594 10V18M603 10V18M612 10V18M621 10V18M630 10V18M639 10V18M648 10V18M657 10V18M666 10V18M675 10V18M684 10V18M693 10V18M702 10V18M711 10V18M720 10V18M729 10V18M738 10V18M747 10V18M756 10V26M765 10V18M774 10V18M783 10V18M792 10V18M801 10V18M810 10V18M819 10V18M828 10V18M837 10V18M846 10V18M855 10V18M864 10V18M873 10V18M882 10V18M891 10V18M900 10V18M909 10V18M918 10V18M927 10V18M936 10V18M945 10V26M954 10V18M963 10V18M972 10V18M981 10V18M990 10V18M999 10V18M1008 10V18M1017 10V18M1026 10V18M1035 10V18M1044 10V18M1053 10V18M1062 10V18M1071 10V18M1080 10V18M1089 10V18M1098 10V18M1107 10V18M1116 10V18M1125 10V18M1134 10V26M1143 10V18M1152 10V18M1161 10V18M1170 10V18M1179 10V18M1188 10V18M1197 10V18M1206 10V18M1215 10V18M1224 10V18M1233 10V18M1242 10V18M1251 10V18M1260 10V18M1269 10V18M1278 10V18M1287 10V18M1296 10V18M1305 10V18M1314 10V18M1323 10V26M1332 10V18M1341 10V18M1350 10V18M1359 10V18M1368 10V18M1377 10V18M1386 10V18M1395 10V18M1404 10V18M1413 10V18M1422 10V18M1431 10V18M1440 10V18M1449 10V18M1458 10V18M1467 10V18M1476 10V18M1485 10V18M1494 10V18M1503 10V18M1512 10V26M1521 10V18M1530 10V18M1539 10V18M1548 10V18M1557 10V18M1566 10V18M1575 10V18M1584 10V18M1593 10V18M1602 10V18M1611 10V18M1620 10V18M1629 10V18M1638 10V18M1647 10V18M1656 10V18M1665 10V18M1674 10V18M1683 10V18M1692 10V18M1701 10V26M1710 10V18M1719 10V18M1728 10V18M1737 10V18M1746 10V18M1755 10V18M1764 10V18M1773 10V18M1782 10V18M1791 10V18M1800 10V18M1809 10V18M1818 10V18M1827 10V18M1836 10V18M1845 10V18M1854 10V18M1863 10V18M1872 10V18M1881 10V18M1890 10V26M1899 10V18M1908 10V18M1917 10V18M1926 10V18M1935 10V18M1944 10V18M1953 10V18M1962 10V18M1971 10V18M1980 10V18M1989 10V18M1998 10V18M2007 10V18M2016 10V18M2025 10V18M2034 10V18M2043 10V18M2052 10V18M2061 10V18M2070 10V18M2079 10V26M2088 10V18M2097 10V18M2106 10V18M2115 10V18M2124 10V18M2133 10V18M2142 10V18M2151 10V18M2160 10V18M2169 10V18M2178 10V18M2187 10V18M2196 10V18M2205 10V18M2214 10V18M2223 10V18M2232 10V18M2241 10V18M2250 10V18M2259 10V18M2268 10V26M2277 10V18M2286 10V18M2295 10V18M2304 10V18M2313 10V18M2322 10V18M2331 10V18M2340 10V18M2349 10V18M2358 10V18M2367 10V18M2376 10V18M2385 10V18M2394 10V18M2403 10V18M2412 10V18M2421 10V18M2430 10V18M2439 10V18M2448 10V18" stroke="#B8BBBF"/>
</g>
<defs>
<clipPath id="clip0_61_124">
<rect width="2448" height="45" fill="white"/>
</clipPath>
</defs>
</svg>
