<svg xmlns="http://www.w3.org/2000/svg" viewBox="0 0 160 160" width="160" height="160"><path fill="rgba(255,255,255,0.24)" d="M38 131h1v1H38zM73 47h1v1H73zM114 53h1v1H114zM107 34h1v1H107zM24 89h1v1H24zM81 60h1v1H81zM35 10h1v1H35zM142 70h1v1H142zM49 91h1v1H49zM73 115h1v1H73zM43 17h1v1H43zM127 74h1v1H127zM1 124h1v1H1zM27 104h1v1H27zM35 100h1v1H35zM53 105h1v1H53zM119 109h1v1H119zM119 49h1v1H119zM27 23h1v1H27zM40 8h1v1H40zM108 33h1v1H108zM17 44h1v1H17zM55 23h1v1H55zM135 7h1v1H135zM57 85h1v1H57zM65 124h1v1H65zM121 117h1v1H121zM82 96h1v1H82zM132 12h1v1H132zM37 72h1v1H37zM25 55h1v1H25zM22 15h1v1H22zM158 74h1v1H158zM102 111h1v1H102zM59 85h1v1H59zM40 101h1v1H40zM49 97h1v1H49zM156 87h1v1H156zM137 132h1v1H137zM4 159h1v1H4zM132 134h1v1H132zM88 18h1v1H88zM105 99h1v1H105zM18 19h1v1H18zM77 14h1v1H77zM14 103h1v1H14zM96 25h1v1H96zM35 26h1v1H35zM117 21h1v1H117zM159 10h1v1H159zM138 89h1v1H138zM91 13h1v1H91zM84 148h1v1H84zM73 21h1v1H73zM131 146h1v1H131zM23 133h1v1H23zM86 154h1v1H86zM56 25h1v1H56zM29 72h1v1H29zM114 16h1v1H114zM119 116h1v1H119zM149 40h1v1H149zM83 120h1v1H83zM120 96h1v1H120zM55 29h1v1H55zM60 24h1v1H60zM4 5h1v1H4zM11 149h1v1H11zM143 55h1v1H143zM17 102h1v1H17zM99 76h1v1H99zM54 0h1v1H54zM139 145h1v1H139zM155 77h1v1H155zM60 109h1v1H60zM64 4h1v1H64zM74 150h1v1H74zM27 149h1v1H27zM37 15h1v1H37zM58 8h1v1H58zM118 99h1v1H118zM7 136h1v1H7zM9 87h1v1H9zM87 17h1v1H87zM6 9h1v1H6zM109 47h1v1H109zM158 138h1v1H158zM37 133h1v1H37zM127 29h1v1H127zM45 125h1v1H45zM16 85h1v1H16zM33 119h1v1H33zM90 108h1v1H90zM65 0h1v1H65zM59 63h1v1H59zM22 6h1v1H22zM68 153h1v1H68zM156 29h1v1H156zM159 71h1v1H159zM122 146h1v1H122zM109 44h1v1H109zM20 156h1v1H20zM157 108h1v1H157zM139 86h1v1H139zM137 131h1v1H137zM136 145h1v1H136zM8 158h1v1H8zM18 84h1v1H18zM6 145h1v1H6zM72 62h1v1H72zM144 24h1v1H144zM99 154h1v1H99zM78 39h1v1H78zM134 50h1v1H134zM111 136h1v1H111zM70 7h1v1H70zM97 38h1v1H97zM98 30h1v1H98zM155 125h1v1H155zM124 38h1v1H124zM30 58h1v1H30zM151 135h1v1H151zM122 126h1v1H122zM9 1h1v1H9zM157 100h1v1H157zM50 110h1v1H50zM18 18h1v1H18zM126 24h1v1H126zM96 5h1v1H96zM1 89h1v1H1zM135 104h1v1H135zM36 96h1v1H36zM111 29h1v1H111zM80 16h1v1H80zM106 52h1v1H106zM146 148h1v1H146zM76 140h1v1H76zM88 116h1v1H88zM92 74h1v1H92zM150 37h1v1H150zM86 132h1v1H86zM33 20h1v1H33zM102 48h1v1H102zM14 125h1v1H14zM158 61h1v1H158zM90 58h1v1H90zM154 78h1v1H154zM121 10h1v1H121zM141 58h1v1H141zM56 80h1v1H56zM15 112h1v1H15zM112 79h1v1H112zM2 149h1v1H2zM54 130h1v1H54zM108 46h1v1H108zM96 99h1v1H96zM153 85h1v1H153zM88 90h1v1H88zM67 0h1v1H67zM67 152h1v1H67zM76 141h1v1H76zM44 50h1v1H44zM63 125h1v1H63zM95 48h1v1H95zM32 10h1v1H32zM150 132h1v1H150zM102 93h1v1H102zM2 116h1v1H2zM104 99h1v1H104zM111 84h1v1H111zM12 49h1v1H12zM135 158h1v1H135zM87 123h1v1H87zM154 82h1v1H154zM118 122h1v1H118zM22 101h1v1H22zM74 101h1v1H74zM103 22h1v1H103zM49 112h1v1H49zM42 92h1v1H42zM120 92h1v1H120zM37 24h1v1H37zM156 144h1v1H156zM27 47h1v1H27zM131 89h1v1H131zM113 65h1v1H113zM96 54h1v1H96zM65 88h1v1H65zM112 95h1v1H112zM44 19h1v1H44zM31 65h1v1H31zM5 112h1v1H5zM147 40h1v1H147zM135 114h1v1H135zM113 32h1v1H113zM40 87h1v1H40zM115 32h1v1H115zM65 32h1v1H65zM21 137h1v1H21zM153 123h1v1H153zM88 137h1v1H88zM26 23h1v1H26zM148 153h1v1H148zM2 145h1v1H2zM143 11h1v1H143zM81 27h1v1H81zM117 2h1v1H117zM58 145h1v1H58zM65 138h1v1H65zM123 7h1v1H123zM67 159h1v1H67zM157 40h1v1H157zM58 42h1v1H58zM135 53h1v1H135zM72 146h1v1H72zM97 95h1v1H97zM67 26h1v1H67zM88 92h1v1H88zM86 81h1v1H86zM49 6h1v1H49zM107 43h1v1H107zM142 15h1v1H142zM96 148h1v1H96zM134 145h1v1H134zM8 19h1v1H8zM2 46h1v1H2zM16 88h1v1H16zM134 20h1v1H134zM4 16h1v1H4zM20 86h1v1H20zM99 129h1v1H99zM128 19h1v1H128zM97 100h1v1H97zM11 107h1v1H11zM121 15h1v1H121zM145 52h1v1H145zM106 48h1v1H106zM137 154h1v1H137zM64 122h1v1H64zM100 38h1v1H100zM89 28h1v1H89zM140 117h1v1H140zM39 18h1v1H39zM25 159h1v1H25zM19 11h1v1H19zM5 74h1v1H5zM100 84h1v1H100zM108 93h1v1H108zM137 147h1v1H137zM99 87h1v1H99zM118 97h1v1H118zM59 88h1v1H59zM91 43h1v1H91zM7 78h1v1H7zM8 64h1v1H8zM53 53h1v1H53zM36 115h1v1H36zM56 129h1v1H56zM24 111h1v1H24zM38 12h1v1H38zM22 85h1v1H22zM89 62h1v1H89zM131 54h1v1H131zM132 16h1v1H132zM79 37h1v1H79zM127 70h1v1H127zM72 107h1v1H72zM35 138h1v1H35zM30 48h1v1H30zM47 2h1v1H47zM127 157h1v1H127zM5 81h1v1H5zM146 150h1v1H146zM23 15h1v1H23zM155 10h1v1H155zM51 156h1v1H51zM105 141h1v1H105zM141 38h1v1H141zM136 122h1v1H136zM47 113h1v1H47zM69 41h1v1H69zM144 122h1v1H144zM113 111h1v1H113zM147 131h1v1H147zM58 86h1v1H58zM103 86h1v1H103zM32 148h1v1H32zM39 156h1v1H39zM10 87h1v1H10zM106 49h1v1H106zM106 122h1v1H106zM95 111h1v1H95zM52 82h1v1H52zM66 90h1v1H66zM113 97h1v1H113zM93 46h1v1H93zM24 34h1v1H24zM152 6h1v1H152zM22 138h1v1H22zM144 58h1v1H144zM8 22h1v1H8zM56 110h1v1H56zM30 144h1v1H30zM150 136h1v1H150zM112 122h1v1H112zM2 46h1v1H2zM6 15h1v1H6zM35 99h1v1H35zM140 136h1v1H140zM119 92h1v1H119zM114 146h1v1H114zM102 106h1v1H102zM112 134h1v1H112zM104 151h1v1H104zM33 15h1v1H33zM86 132h1v1H86zM41 45h1v1H41zM136 118h1v1H136zM155 135h1v1H155zM87 17h1v1H87zM68 52h1v1H68zM1 7h1v1H1zM115 20h1v1H115zM46 83h1v1H46zM17 50h1v1H17zM108 18h1v1H108zM82 3h1v1H82zM138 80h1v1H138zM118 60h1v1H118zM66 48h1v1H66zM32 17h1v1H32zM25 149h1v1H25zM14 24h1v1H14zM128 96h1v1H128zM19 156h1v1H19zM152 103h1v1H152zM66 80h1v1H66zM26 113h1v1H26zM24 112h1v1H24zM139 92h1v1H139zM146 57h1v1H146zM32 106h1v1H32zM12 81h1v1H12zM19 64h1v1H19zM75 95h1v1H75zM58 10h1v1H58zM38 59h1v1H38zM7 127h1v1H7zM113 152h1v1H113zM9 133h1v1H9zM82 121h1v1H82zM77 37h1v1H77zM68 8h1v1H68zM112 89h1v1H112zM99 67h1v1H99zM155 54h1v1H155zM41 71h1v1H41zM87 55h1v1H87zM112 38h1v1H112zM115 130h1v1H115zM110 123h1v1H110zM49 51h1v1H49zM42 17h1v1H42zM69 147h1v1H69zM60 146h1v1H60zM108 100h1v1H108zM60 149h1v1H60zM148 86h1v1H148zM127 42h1v1H127zM86 0h1v1H86zM38 103h1v1H38zM87 122h1v1H87zM29 8h1v1H29zM16 148h1v1H16zM4 52h1v1H4zM66 17h1v1H66zM124 111h1v1H124zM125 51h1v1H125zM8 51h1v1H8zM82 32h1v1H82zM68 42h1v1H68zM147 131h1v1H147zM39 80h1v1H39zM84 17h1v1H84zM70 152h1v1H70zM47 98h1v1H47zM151 82h1v1H151zM82 31h1v1H82zM128 108h1v1H128zM78 130h1v1H78zM0 26h1v1H0zM69 86h1v1H69zM109 110h1v1H109zM0 68h1v1H0zM33 126h1v1H33zM69 148h1v1H69zM41 40h1v1H41zM40 141h1v1H40zM159 118h1v1H159zM155 64h1v1H155zM133 67h1v1H133zM49 12h1v1H49zM80 148h1v1H80zM119 57h1v1H119zM50 132h1v1H50zM84 8h1v1H84zM147 64h1v1H147zM70 39h1v1H70zM149 90h1v1H149zM145 28h1v1H145zM25 4h1v1H25zM45 124h1v1H45zM58 25h1v1H58zM54 149h1v1H54zM131 28h1v1H131zM65 119h1v1H65zM10 82h1v1H10zM97 38h1v1H97zM80 86h1v1H80zM9 60h1v1H9zM159 3h1v1H159zM36 51h1v1H36zM62 153h1v1H62zM88 40h1v1H88zM102 108h1v1H102zM19 34h1v1H19zM26 54h1v1H26zM16 130h1v1H16zM49 41h1v1H49zM9 117h1v1H9zM41 98h1v1H41zM70 59h1v1H70zM122 92h1v1H122zM147 11h1v1H147zM60 126h1v1H60zM38 122h1v1H38zM33 130h1v1H33zM131 154h1v1H131zM56 3h1v1H56zM57 79h1v1H57zM78 140h1v1H78zM158 55h1v1H158zM49 126h1v1H49zM145 79h1v1H145zM117 135h1v1H117zM75 107h1v1H75zM25 20h1v1H25zM18 63h1v1H18zM27 76h1v1H27zM110 113h1v1H110zM59 138h1v1H59zM0 67h1v1H0zM59 120h1v1H59zM116 149h1v1H116zM12 4h1v1H12zM140 124h1v1H140zM119 86h1v1H119zM86 82h1v1H86zM82 33h1v1H82zM103 107h1v1H103zM57 39h1v1H57zM139 127h1v1H139zM113 5h1v1H113zM151 133h1v1H151zM12 94h1v1H12zM8 63h1v1H8zM89 117h1v1H89zM5 103h1v1H5zM1 66h1v1H1zM92 135h1v1H92zM27 113h1v1H27zM94 129h1v1H94zM40 88h1v1H40zM83 127h1v1H83zM82 29h1v1H82zM36 93h1v1H36zM158 125h1v1H158zM115 124h1v1H115zM67 151h1v1H67zM140 92h1v1H140zM140 131h1v1H140zM136 87h1v1H136zM137 19h1v1H137zM155 19h1v1H155zM111 61h1v1H111zM32 152h1v1H32zM88 5h1v1H88zM70 29h1v1H70zM67 51h1v1H67zM59 66h1v1H59zM141 11h1v1H141zM82 138h1v1H82zM80 128h1v1H80zM115 150h1v1H115zM20 114h1v1H20zM53 67h1v1H53zM82 91h1v1H82zM101 110h1v1H101zM159 83h1v1H159zM64 148h1v1H64zM17 42h1v1H17zM101 21h1v1H101zM76 40h1v1H76zM130 62h1v1H130zM41 121h1v1H41zM39 117h1v1H39zM3 1h1v1H3zM50 84h1v1H50zM135 106h1v1H135zM119 39h1v1H119zM1 76h1v1H1zM28 7h1v1H28zM86 125h1v1H86zM105 84h1v1H105zM85 29h1v1H85zM138 83h1v1H138zM158 108h1v1H158zM18 148h1v1H18zM84 139h1v1H84zM87 127h1v1H87z"/><path fill="rgba(0,0,0,0.2)" d="M55 50h1v1H55zM159 40h1v1H159zM24 140h1v1H24zM64 157h1v1H64zM10 120h1v1H10zM141 46h1v1H141zM88 99h1v1H88zM115 3h1v1H115zM10 141h1v1H10zM138 138h1v1H138zM139 22h1v1H139zM135 122h1v1H135zM26 40h1v1H26zM13 79h1v1H13zM98 108h1v1H98zM150 107h1v1H150zM132 148h1v1H132zM27 99h1v1H27zM54 54h1v1H54zM78 6h1v1H78zM41 73h1v1H41zM69 50h1v1H69zM94 130h1v1H94zM118 129h1v1H118zM125 135h1v1H125zM146 107h1v1H146zM35 28h1v1H35zM129 144h1v1H129zM84 104h1v1H84zM29 106h1v1H29zM157 113h1v1H157zM117 28h1v1H117zM70 12h1v1H70zM4 98h1v1H4zM73 129h1v1H73zM42 142h1v1H42zM100 29h1v1H100zM142 32h1v1H142zM43 157h1v1H43zM72 121h1v1H72zM154 22h1v1H154zM26 9h1v1H26zM100 136h1v1H100zM22 92h1v1H22zM9 84h1v1H9zM42 140h1v1H42zM30 44h1v1H30zM22 57h1v1H22zM79 117h1v1H79zM85 27h1v1H85zM35 77h1v1H35zM53 18h1v1H53zM69 57h1v1H69zM152 77h1v1H152zM12 49h1v1H12zM87 19h1v1H87zM74 120h1v1H74zM109 41h1v1H109zM156 77h1v1H156zM31 129h1v1H31zM131 92h1v1H131zM60 36h1v1H60zM22 151h1v1H22zM127 24h1v1H127zM142 63h1v1H142zM55 54h1v1H55zM27 49h1v1H27zM47 109h1v1H47zM4 66h1v1H4zM83 49h1v1H83zM130 41h1v1H130zM23 4h1v1H23zM113 31h1v1H113zM36 107h1v1H36zM154 24h1v1H154zM45 4h1v1H45zM151 77h1v1H151zM123 72h1v1H123zM7 91h1v1H7zM132 62h1v1H132zM12 14h1v1H12zM133 54h1v1H133zM108 0h1v1H108zM107 154h1v1H107zM133 130h1v1H133zM112 78h1v1H112zM100 88h1v1H100zM134 80h1v1H134zM112 77h1v1H112zM43 130h1v1H43zM20 114h1v1H20zM106 5h1v1H106zM103 154h1v1H103zM145 147h1v1H145zM75 40h1v1H75zM125 127h1v1H125zM18 52h1v1H18zM11 82h1v1H11zM148 9h1v1H148zM152 114h1v1H152zM55 5h1v1H55zM128 74h1v1H128zM155 28h1v1H155zM105 73h1v1H105zM4 25h1v1H4zM157 57h1v1H157zM131 126h1v1H131zM87 5h1v1H87zM34 120h1v1H34zM70 103h1v1H70zM46 56h1v1H46zM108 156h1v1H108zM99 27h1v1H99zM131 55h1v1H131zM153 115h1v1H153zM92 12h1v1H92zM25 87h1v1H25zM53 52h1v1H53zM104 61h1v1H104zM14 112h1v1H14zM136 44h1v1H136zM39 17h1v1H39zM37 121h1v1H37zM16 98h1v1H16zM3 94h1v1H3zM38 46h1v1H38zM112 83h1v1H112zM157 68h1v1H157zM127 27h1v1H127zM91 75h1v1H91zM97 0h1v1H97zM149 94h1v1H149zM147 138h1v1H147zM1 127h1v1H1zM125 112h1v1H125zM13 149h1v1H13zM146 63h1v1H146zM99 3h1v1H99zM62 123h1v1H62zM70 121h1v1H70zM82 37h1v1H82zM59 23h1v1H59zM40 104h1v1H40zM97 87h1v1H97zM67 65h1v1H67zM79 104h1v1H79zM90 110h1v1H90zM59 29h1v1H59zM59 79h1v1H59zM120 39h1v1H120zM130 145h1v1H130zM6 117h1v1H6zM86 98h1v1H86zM64 27h1v1H64zM19 118h1v1H19zM103 134h1v1H103zM35 73h1v1H35zM15 24h1v1H15zM129 146h1v1H129zM150 98h1v1H150zM137 74h1v1H137zM76 128h1v1H76zM53 52h1v1H53zM29 26h1v1H29zM52 157h1v1H52zM107 107h1v1H107zM84 9h1v1H84zM126 93h1v1H126zM98 82h1v1H98zM91 127h1v1H91zM17 55h1v1H17zM117 98h1v1H117zM119 9h1v1H119zM142 141h1v1H142zM88 119h1v1H88zM126 129h1v1H126zM5 74h1v1H5zM15 155h1v1H15zM41 37h1v1H41zM101 39h1v1H101zM108 139h1v1H108zM16 116h1v1H16zM4 74h1v1H4zM105 136h1v1H105zM99 36h1v1H99zM130 43h1v1H130zM136 5h1v1H136zM109 39h1v1H109zM122 135h1v1H122zM69 89h1v1H69zM1 134h1v1H1zM71 30h1v1H71zM76 2h1v1H76zM104 55h1v1H104zM79 76h1v1H79zM146 85h1v1H146zM64 116h1v1H64zM91 112h1v1H91zM119 113h1v1H119zM61 127h1v1H61zM98 60h1v1H98zM83 15h1v1H83zM108 2h1v1H108zM68 44h1v1H68zM7 101h1v1H7zM96 5h1v1H96zM4 26h1v1H4zM102 113h1v1H102zM42 42h1v1H42zM20 41h1v1H20zM6 144h1v1H6zM30 80h1v1H30zM86 20h1v1H86zM128 84h1v1H128zM72 102h1v1H72zM28 90h1v1H28zM34 18h1v1H34zM125 149h1v1H125zM118 42h1v1H118zM136 101h1v1H136zM67 42h1v1H67zM76 130h1v1H76zM124 153h1v1H124zM88 33h1v1H88zM13 139h1v1H13zM35 29h1v1H35zM114 20h1v1H114zM90 7h1v1H90zM36 106h1v1H36zM117 122h1v1H117zM36 60h1v1H36zM113 33h1v1H113zM103 14h1v1H103zM63 91h1v1H63zM5 84h1v1H5zM126 104h1v1H126zM130 94h1v1H130zM54 5h1v1H54zM123 112h1v1H123zM132 69h1v1H132zM26 158h1v1H26zM52 116h1v1H52zM27 83h1v1H27zM17 69h1v1H17zM106 154h1v1H106zM79 100h1v1H79zM78 47h1v1H78zM14 102h1v1H14zM109 79h1v1H109zM139 149h1v1H139zM57 49h1v1H57zM6 6h1v1H6zM33 76h1v1H33zM109 76h1v1H109zM134 27h1v1H134zM87 0h1v1H87zM55 51h1v1H55zM88 104h1v1H88zM140 36h1v1H140zM134 51h1v1H134zM22 102h1v1H22zM70 155h1v1H70zM159 6h1v1H159zM142 111h1v1H142zM112 3h1v1H112zM63 17h1v1H63zM58 141h1v1H58zM54 144h1v1H54zM110 131h1v1H110zM31 89h1v1H31zM23 61h1v1H23zM42 70h1v1H42zM5 9h1v1H5zM112 135h1v1H112zM23 24h1v1H23zM116 121h1v1H116zM1 54h1v1H1zM14 45h1v1H14zM130 82h1v1H130zM19 12h1v1H19zM103 139h1v1H103zM141 47h1v1H141zM83 46h1v1H83zM61 119h1v1H61zM64 81h1v1H64zM123 55h1v1H123zM27 101h1v1H27zM156 23h1v1H156zM32 147h1v1H32zM44 54h1v1H44zM17 154h1v1H17zM110 31h1v1H110zM114 115h1v1H114zM33 110h1v1H33zM56 144h1v1H56zM42 63h1v1H42zM4 123h1v1H4zM151 138h1v1H151zM20 53h1v1H20zM132 72h1v1H132zM92 75h1v1H92zM82 86h1v1H82zM118 78h1v1H118zM21 66h1v1H21zM67 22h1v1H67zM79 51h1v1H79zM116 16h1v1H116zM97 73h1v1H97zM124 72h1v1H124zM118 156h1v1H118zM53 103h1v1H53zM40 22h1v1H40zM153 153h1v1H153zM142 47h1v1H142zM48 94h1v1H48zM44 48h1v1H44zM83 99h1v1H83zM114 77h1v1H114zM159 122h1v1H159zM101 71h1v1H101zM131 74h1v1H131zM42 14h1v1H42zM126 123h1v1H126zM50 124h1v1H50zM126 37h1v1H126zM133 87h1v1H133zM131 71h1v1H131zM72 111h1v1H72zM17 32h1v1H17zM117 38h1v1H117zM0 61h1v1H0zM44 153h1v1H44zM99 148h1v1H99zM140 26h1v1H140zM65 88h1v1H65zM134 50h1v1H134zM20 25h1v1H20zM32 18h1v1H32zM147 150h1v1H147zM94 121h1v1H94zM69 122h1v1H69zM134 72h1v1H134zM32 44h1v1H32zM113 54h1v1H113zM117 122h1v1H117zM30 73h1v1H30zM1 132h1v1H1zM55 78h1v1H55zM54 53h1v1H54zM114 31h1v1H114zM125 33h1v1H125zM90 158h1v1H90zM101 159h1v1H101zM100 157h1v1H100zM88 55h1v1H88zM26 67h1v1H26zM72 123h1v1H72zM52 63h1v1H52zM31 61h1v1H31zM49 36h1v1H49zM108 68h1v1H108zM110 141h1v1H110zM150 125h1v1H150zM151 54h1v1H151zM34 133h1v1H34zM22 136h1v1H22zM39 57h1v1H39zM10 52h1v1H10zM33 45h1v1H33zM91 69h1v1H91zM155 76h1v1H155zM117 23h1v1H117zM109 156h1v1H109zM8 114h1v1H8zM134 42h1v1H134zM157 68h1v1H157zM56 81h1v1H56zM55 89h1v1H55zM35 141h1v1H35zM78 57h1v1H78zM138 66h1v1H138zM40 6h1v1H40zM41 141h1v1H41zM9 13h1v1H9zM50 132h1v1H50zM120 56h1v1H120zM44 98h1v1H44zM150 115h1v1H150zM4 23h1v1H4zM157 59h1v1H157zM81 110h1v1H81zM149 139h1v1H149zM117 130h1v1H117zM0 110h1v1H0zM19 84h1v1H19zM56 122h1v1H56zM159 13h1v1H159zM60 47h1v1H60zM96 150h1v1H96zM115 144h1v1H115zM155 151h1v1H155zM96 120h1v1H96zM63 125h1v1H63zM59 53h1v1H59zM77 7h1v1H77zM44 158h1v1H44zM144 111h1v1H144zM128 66h1v1H128zM65 108h1v1H65zM27 98h1v1H27zM118 141h1v1H118zM134 30h1v1H134zM61 139h1v1H61zM5 129h1v1H5zM63 150h1v1H63zM106 50h1v1H106zM126 78h1v1H126zM40 127h1v1H40zM14 124h1v1H14zM94 87h1v1H94zM16 72h1v1H16zM50 132h1v1H50zM7 93h1v1H7zM110 123h1v1H110zM82 153h1v1H82zM16 130h1v1H16zM0 140h1v1H0zM39 102h1v1H39zM139 130h1v1H139zM150 66h1v1H150zM12 91h1v1H12zM155 118h1v1H155zM153 130h1v1H153zM86 124h1v1H86zM151 25h1v1H151zM13 49h1v1H13zM6 27h1v1H6zM107 125h1v1H107zM47 147h1v1H47zM23 89h1v1H23zM124 2h1v1H124zM115 145h1v1H115zM103 32h1v1H103zM126 84h1v1H126zM64 156h1v1H64zM4 91h1v1H4zM66 125h1v1H66zM28 79h1v1H28zM38 126h1v1H38zM159 22h1v1H159zM60 42h1v1H60zM50 157h1v1H50zM82 1h1v1H82zM18 63h1v1H18zM55 85h1v1H55zM28 47h1v1H28zM80 116h1v1H80zM108 104h1v1H108zM42 52h1v1H42zM104 102h1v1H104zM157 67h1v1H157zM67 63h1v1H67zM82 127h1v1H82zM39 124h1v1H39zM155 130h1v1H155zM140 74h1v1H140zM99 28h1v1H99zM109 47h1v1H109zM130 129h1v1H130zM100 133h1v1H100zM31 84h1v1H31zM39 60h1v1H39zM91 80h1v1H91zM49 153h1v1H49zM40 75h1v1H40zM155 25h1v1H155zM112 39h1v1H112zM71 101h1v1H71zM127 12h1v1H127zM101 111h1v1H101zM13 124h1v1H13zM18 76h1v1H18zM121 122h1v1H121zM90 62h1v1H90zM53 64h1v1H53zM64 149h1v1H64zM31 41h1v1H31zM41 14h1v1H41zM71 37h1v1H71zM106 137h1v1H106zM136 100h1v1H136zM132 107h1v1H132zM116 87h1v1H116zM104 107h1v1H104zM3 61h1v1H3zM33 35h1v1H33zM11 18h1v1H11zM58 5h1v1H58zM109 104h1v1H109zM41 124h1v1H41zM83 105h1v1H83zM130 22h1v1H130zM0 57h1v1H0zM93 98h1v1H93zM25 59h1v1H25zM78 86h1v1H78zM20 89h1v1H20zM43 21h1v1H43zM48 71h1v1H48zM122 86h1v1H122zM42 116h1v1H42zM52 38h1v1H52zM1 119h1v1H1zM156 22h1v1H156zM19 36h1v1H19zM6 59h1v1H6zM145 72h1v1H145zM72 89h1v1H72zM100 116h1v1H100zM6 5h1v1H6z"/></svg>
