<svg width="181" height="181" viewBox="0 0 181 181" fill="none" xmlns="http://www.w3.org/2000/svg">
<path d="M55.8109 0.853543L0.853565 55.8102C0.538579 56.1252 0.761661 56.6638 1.20712 56.6638H56.1644C56.4406 56.6638 56.6644 56.4399 56.6644 56.1638V1.2071C56.6644 0.761646 56.1258 0.538563 55.8109 0.853543Z" stroke="white"/>
<path d="M55.8109 62.5216L0.853565 117.478C0.538579 117.793 0.761661 118.332 1.20712 118.332H56.1644C56.4406 118.332 56.6644 118.108 56.6644 117.832V62.8752C56.6644 62.4297 56.1258 62.2067 55.8109 62.5216Z" stroke="white"/>
<path d="M55.8109 124.189L0.853565 179.146C0.538579 179.461 0.761661 180 1.20712 180H56.1644C56.4406 180 56.6644 179.776 56.6644 179.5V124.543C56.6644 124.098 56.1258 123.875 55.8109 124.189Z" stroke="white"/>
<path d="M117.479 0.853543L62.5215 55.8102C62.2065 56.1252 62.4296 56.6638 62.8751 56.6638H117.832C118.109 56.6638 118.332 56.4399 118.332 56.1638V1.2071C118.332 0.761646 117.794 0.538563 117.479 0.853543Z" stroke="white"/>
<path d="M117.479 62.5216L62.5215 117.478C62.2065 117.793 62.4296 118.332 62.8751 118.332H117.832C118.109 118.332 118.332 118.108 118.332 117.832V62.8752C118.332 62.4297 117.794 62.2067 117.479 62.5216Z" stroke="white"/>
<path d="M117.479 124.189L62.5215 179.146C62.2065 179.461 62.4296 180 62.8751 180H117.832C118.109 180 118.332 179.776 118.332 179.5V124.543C118.332 124.098 117.794 123.875 117.479 124.189Z" stroke="white"/>
<path d="M179.147 0.853543L124.19 55.8102C123.875 56.1252 124.098 56.6638 124.543 56.6638H179.5C179.776 56.6638 180 56.4399 180 56.1638V1.2071C180 0.761646 179.462 0.538563 179.147 0.853543Z" stroke="white"/>
<path d="M179.147 62.5216L124.19 117.478C123.875 117.793 124.098 118.332 124.543 118.332H179.5C179.776 118.332 180 118.108 180 117.832V62.8752C180 62.4297 179.462 62.2067 179.147 62.5216Z" stroke="white"/>
<path d="M179.147 124.189L124.19 179.146C123.875 179.461 124.098 180 124.543 180H179.5C179.776 180 180 179.776 180 179.5V124.543C180 124.098 179.462 123.875 179.147 124.189Z" stroke="white"/>
</svg>
