<svg width="182" height="182" viewBox="0 0 182 182" fill="none" xmlns="http://www.w3.org/2000/svg">
<path d="M37 0.5C57.1647 0.5 73.4999 17.0657 73.5 37.4863C73.5 57.9071 57.1648 74.4727 37 74.4727C16.8353 74.4726 0.5 57.907 0.5 37.4863C0.500085 17.0657 16.8353 0.500052 37 0.5Z" stroke="white"/>
<path d="M37 52.7969C57.1647 52.7969 73.4999 69.3626 73.5 89.7832C73.5 110.204 57.1648 126.77 37 126.77C16.8353 126.769 0.5 110.204 0.5 89.7832C0.500085 69.3626 16.8353 52.7969 37 52.7969Z" stroke="white"/>
<path d="M37 107.527C57.1647 107.527 73.4999 124.093 73.5 144.514C73.5 164.934 57.1648 181.5 37 181.5C16.8353 181.5 0.5 164.934 0.5 144.514C0.500085 124.093 16.8353 107.527 37 107.527Z" stroke="white"/>
<path d="M91 0.5C111.165 0.5 127.5 17.0657 127.5 37.4863C127.5 57.9071 111.165 74.4727 91 74.4727C70.8353 74.4726 54.5 57.907 54.5 37.4863C54.5001 17.0657 70.8353 0.500052 91 0.5Z" stroke="white"/>
<path d="M145 0.5C165.165 0.5 181.5 17.0657 181.5 37.4863C181.5 57.9071 165.165 74.4727 145 74.4727C124.835 74.4726 108.5 57.907 108.5 37.4863C108.5 17.0657 124.835 0.500052 145 0.5Z" stroke="white"/>
<path d="M91 52.7969C111.165 52.7969 127.5 69.3626 127.5 89.7832C127.5 110.204 111.165 126.77 91 126.77C70.8353 126.769 54.5 110.204 54.5 89.7832C54.5001 69.3626 70.8353 52.7969 91 52.7969Z" stroke="white"/>
<path d="M145 52.7969C165.165 52.7969 181.5 69.3626 181.5 89.7832C181.5 110.204 165.165 126.77 145 126.77C124.835 126.769 108.5 110.204 108.5 89.7832C108.5 69.3626 124.835 52.7969 145 52.7969Z" stroke="white"/>
<path d="M91 107.527C111.165 107.527 127.5 124.093 127.5 144.514C127.5 164.934 111.165 181.5 91 181.5C70.8353 181.5 54.5 164.934 54.5 144.514C54.5001 124.093 70.8353 107.527 91 107.527Z" stroke="white"/>
<path d="M145 107.527C165.165 107.527 181.5 124.093 181.5 144.514C181.5 164.934 165.165 181.5 145 181.5C124.835 181.5 108.5 164.934 108.5 144.514C108.5 124.093 124.835 107.527 145 107.527Z" stroke="white"/>
</svg>
